<svg width="16" height="16" viewBox="0 0 16 16" fill="none" xmlns="http://www.w3.org/2000/svg">
<path d="M3.62995 4.05779H11.9633V5.54946C11.9633 5.92446 12.4133 6.10779 12.6716 5.84112L14.9966 3.51612C15.1633 3.34946 15.1633 3.09112 14.9966 2.92446L12.6716 0.599457C12.6129 0.541871 12.5384 0.502964 12.4576 0.487638C12.3767 0.472312 12.2932 0.481253 12.2174 0.513335C12.1417 0.545417 12.0771 0.599204 12.0319 0.667918C11.9867 0.736631 11.9628 0.817195 11.9633 0.899457V2.39112H2.79662C2.33829 2.39112 1.96329 2.76612 1.96329 3.22446V6.55779C1.96329 7.01612 2.33829 7.39112 2.79662 7.39112C3.25495 7.39112 3.62995 7.01612 3.62995 6.55779V4.05779ZM11.9633 12.3911H3.62995V10.8995C3.62995 10.5245 3.17995 10.3411 2.92162 10.6078L0.596619 12.9328C0.429952 13.0995 0.429952 13.3578 0.596619 13.5245L2.92162 15.8495C2.98036 15.907 3.05484 15.9459 3.13567 15.9613C3.21649 15.9766 3.30004 15.9677 3.37579 15.9356C3.45154 15.9035 3.5161 15.8497 3.56133 15.781C3.60656 15.7123 3.63043 15.6317 3.62995 15.5495V14.0578H12.7966C13.2549 14.0578 13.6299 13.6828 13.6299 13.2245V9.89112C13.6299 9.43279 13.2549 9.05779 12.7966 9.05779C12.3383 9.05779 11.9633 9.43279 11.9633 9.89112V12.3911Z" fill="#8996B8" fill-opacity="0.6"/>
</svg>
