<svg width="16" height="18" viewBox="0 0 16 18" fill="none" xmlns="http://www.w3.org/2000/svg">
<path d="M5.4628 13.2166L5.84848 12.5734L5.67042 12.4666H5.4628V13.2166ZM5.4628 5.22185V5.97185H5.67042L5.84848 5.86508L5.4628 5.22185ZM12.1295 1.22446H12.8795C12.8795 0.954291 12.7342 0.705004 12.4991 0.57186C12.264 0.438716 11.9755 0.442294 11.7438 0.581226L12.1295 1.22446ZM12.1295 17.214L11.7438 17.8573C11.9755 17.9962 12.264 17.9998 12.4991 17.8666C12.7342 17.7335 12.8795 17.4842 12.8795 17.214H12.1295ZM5.4628 12.4666H2.79613V13.9666H5.4628V12.4666ZM2.79613 12.4666C2.47339 12.4666 2.2128 12.2059 2.2128 11.8842H0.712795C0.712795 13.0362 1.64686 13.9666 2.79613 13.9666V12.4666ZM2.2128 11.8842V6.55431H0.712795V11.8842H2.2128ZM2.2128 6.55431C2.2128 6.23262 2.47339 5.97185 2.79613 5.97185V4.47185C1.64686 4.47185 0.712795 5.4023 0.712795 6.55431H2.2128ZM2.79613 5.97185H5.4628V4.47185H2.79613V5.97185ZM5.84848 5.86508L12.5151 1.86769L11.7438 0.581226L5.07711 4.57862L5.84848 5.86508ZM11.3795 1.22446V17.214H12.8795V1.22446H11.3795ZM12.5151 16.5708L5.84848 12.5734L5.07711 13.8599L11.7438 17.8573L12.5151 16.5708ZM14.0461 7.22446V11.2245H15.5461V7.22446H14.0461Z" fill="#8996B8" fill-opacity="0.6"/>
</svg>
